HIERARCHY
ROOT Hips
{
   OFFSET 0.00000 0.00000 0.00000
   CHANNELS 6 Xposition Yposition Zposition Zrotation Xrotation Yrotation
   JOINT Spine
   {
      OFFSET 0.000000 15.457650 0.000000
      CHANNELS 3 Zrotation Xrotation Yrotation
      JOINT Spine1
      {
         OFFSET -0.000000 33.354620 0.165958
         CHANNELS 3 Zrotation Xrotation Yrotation
         JOINT HEad
         {
            OFFSET 0.000000 11.354408 0.014742
            CHANNELS 3 Zrotation Xrotation Yrotation
            End Site
            {
               OFFSET -0.377000 16.606459 3.268135
            }
         }
         JOINT LeftShoulder1
         {
            OFFSET 11.687000 -0.470925 -0.286000
            CHANNELS 3 Zrotation Xrotation Yrotation
            JOINT LeftArm
            {
               OFFSET 13.367510 -0.004394 0.418756
               CHANNELS 3 Zrotation Xrotation Yrotation
               JOINT LeftForeArm
               {
                  OFFSET 42.596969 0.128882 -1.851642
                  CHANNELS 3 Zrotation Xrotation Yrotation
                  JOINT LeftHand
                  {
                     OFFSET 35.833589 0.110968 1.328808
                     CHANNELS 3 Zrotation Xrotation Yrotation
                     End Site
                     {
                        OFFSET 21.767590 -0.780000 1.953783
                     }
                  }
               }
            }
         }
         JOINT RightShoulder
         {
            OFFSET -11.687000 -0.470925 -0.286000
            CHANNELS 3 Zrotation Xrotation Yrotation
            JOINT RightArm
            {
               OFFSET -13.367510 -0.004394 0.418756
               CHANNELS 3 Zrotation Xrotation Yrotation
               JOINT RightForeArm
               {
                  OFFSET -42.766227 0.128882 -1.851642
                  CHANNELS 3 Zrotation Xrotation Yrotation
                  JOINT RightHand
                  {
                     OFFSET -35.739729 0.110968 1.328808
                     CHANNELS 3 Zrotation Xrotation Yrotation
                     End Site
                     {
                        OFFSET -21.620562 -0.780000 1.953783
                     }
                  }
               }
            }
         }
      }
   }
   JOINT LeftUpLeg
   {
      OFFSET 11.629540 -11.267191 0.132145
      CHANNELS 3 Zrotation Xrotation Yrotation
      JOINT LeftLeg
      {
         OFFSET 0.000000 -57.749504 1.784510
         CHANNELS 3 Zrotation Xrotation Yrotation
         JOINT LeftFoot
         {
            OFFSET -0.329615 -54.720115 -1.898767
            CHANNELS 3 Zrotation Xrotation Yrotation
            JOINT LeftToes
            {
               OFFSET -0.052000 -5.739617 11.048829
               CHANNELS 3 Zrotation Xrotation Yrotation
               End Site
               {
                  OFFSET 0.104000 -0.061685 12.713727
               }
            }
         }
      }
   }
   JOINT RightUpLeg
   {
      OFFSET -11.629540 -11.267191 0.132145
      CHANNELS 3 Zrotation Xrotation Yrotation
      JOINT RightLeg
      {
         OFFSET 0.000000 -57.749504 1.784510
         CHANNELS 3 Zrotation Xrotation Yrotation
         JOINT RightFoot
         {
            OFFSET 0.329615 -54.720115 -1.898767
            CHANNELS 3 Zrotation Xrotation Yrotation
            JOINT RightToes
            {
               OFFSET 0.052000 -5.739617 11.048829
               CHANNELS 3 Zrotation Xrotation Yrotation
               End Site
               {
                  OFFSET -0.104000 -0.178685 12.713727
               }
            }
         }
      }
   }
}
MOTION
Frames: 7
Frame Time: 0.016670
-90.757149 111.416987 17.367271 38.485698 42.200488 115.760177 31.714221 72.183980 156.430579 1.206732 14.503435 -171.404827 -40.751002 39.867882 28.848110 274.466207 -53.178521 289.490492 725.341283 -42.343539 725.007040 -84.679572 119.798171 16.498783 -124.344646 -14.286103 -125.779614 348.322354 332.481123 305.538213 295.157145 -32.867191 518.096896 71.239269 229.259753 119.845136 -10.589566 -19.173512 37.772281 10.265604 24.316896 41.478561 13.592834 23.624706 20.390860 -24.460164 28.235145 -32.010429 -14.126240 -13.368897 -51.892939 -45.642582 53.944383 72.993801 13.503141 20.947130 2.437369 8.932111 6.921099 -24.468208 -46.322777 -74.556002 -63.410192
-90.792845 110.975607 20.075319 37.207958 41.037778 115.747855 31.041991 72.054855 153.416280 2.043560 24.528854 -169.058301 -38.842794 44.530743 29.712088 284.813916 -49.463390 305.906633 728.301159 -35.711412 715.738965 -93.462055 125.300175 26.146994 -125.529178 -10.168978 -131.704666 350.114213 346.381706 309.977808 307.410340 -18.673911 523.378217 80.152051 234.718167 133.037578 -10.589728 -16.460112 35.883963 12.565870 22.349595 42.625039 14.238649 23.818714 15.662609 -24.674741 27.960078 -32.042255 -0.822282 -6.273270 -57.476110 -44.725315 54.312991 75.992350 13.725532 17.698130 -4.811936 7.642236 5.796256 -23.935853 -46.082101 -71.406479 -57.553093
-90.726527 110.640829 22.548296 36.971186 40.161287 117.225389 32.638291 71.465294 149.106458 2.067362 31.535622 -167.663044 -35.656381 49.320755 30.746332 290.171516 -46.142596 317.720811 730.599982 -29.132799 706.893707 -99.947961 129.203765 35.921990 -126.067971 -6.883072 -136.725839 348.786888 356.389654 312.283598 315.273363 -6.737495 525.959537 88.421423 238.752650 144.792606 -10.652955 -17.392634 36.189262 13.426285 21.660331 43.812378 14.081243 22.582873 12.186805 -24.009008 28.882992 -31.600102 -7.622526 -10.827566 -52.833706 -44.089961 56.144609 77.880091 15.880262 13.294308 -10.844386 8.192199 5.025574 -23.201816 -43.537767 -64.402605 -53.404481
-90.573948 110.480727 24.700884 39.372520 42.098127 121.342764 36.787635 71.457917 142.424074 0.719470 33.731521 -167.644179 -31.902977 53.420224 32.158091 292.580852 -42.726938 325.840759 731.201694 -23.792291 700.214492 -104.937155 132.331623 44.288200 -127.115981 -3.914342 -142.018279 346.563361 362.283288 313.469374 319.332681 3.113486 527.041657 95.870564 240.868124 155.269201 -10.920294 -15.654309 34.837674 15.579580 22.743495 43.769727 14.540628 21.969339 8.781450 -23.274932 30.629768 -32.296618 -6.652344 -10.255989 -52.149676 -44.691857 61.339648 80.829818 20.874598 10.634124 -13.507859 7.570700 3.061559 -20.359602 -43.711472 -61.404207 -47.344860
-90.426062 110.528925 26.693470 41.045216 40.973151 122.482968 41.648581 71.556805 138.253725 -0.197476 34.504545 -165.883698 -28.331041 56.332600 34.085397 292.948917 -38.650278 330.812945 732.123770 -20.181011 695.542315 -108.015685 134.962216 51.281159 -127.733280 -1.771894 -146.163275 343.310333 364.249781 314.614960 321.250079 10.642323 526.587040 102.075524 241.946611 164.048385 -11.347903 -16.304888 33.700590 17.400738 23.560347 43.985817 14.888971 18.946830 6.561622 -23.213508 31.192019 -32.689210 -7.560938 -11.860767 -49.741928 -45.326956 63.803522 80.801363 23.471441 4.366377 -15.419137 8.128203 3.241549 -19.212759 -44.108754 -57.527678 -43.797287
-90.272902 110.758436 28.469748 42.364802 39.939658 121.968136 45.610364 71.906661 134.994454 -1.279652 32.251658 -162.974256 -25.633353 57.709225 36.647233 292.929055 -33.383810 332.766133 732.538663 -19.143582 693.545386 -109.137626 137.377849 56.785824 -128.331878 -0.215288 -150.512193 340.250436 362.534393 315.583700 322.123660 15.961003 525.201932 107.232098 241.619718 170.758349 -11.989934 -15.465594 30.670766 18.874997 24.620272 44.165373 14.853167 18.011658 6.933135 -23.053847 31.169172 -33.056053 -6.544905 -14.236747 -50.157617 -44.869937 64.800033 80.285739 24.164361 1.219810 -16.058350 7.742755 3.915805 -19.039456 -44.117831 -55.481562 -41.769363
-90.129689 111.219586 30.014116 45.010147 40.246862 119.731645 49.562441 71.449072 131.507984 -2.353748 26.360627 -159.441518 -24.015562 58.534933 40.396023 293.627210 -25.982226 331.938342 732.184531 -20.667813 695.277959 -107.882380 139.499688 60.697330 -128.786222 0.047250 -153.996423 337.647451 357.417679 316.688469 320.877260 19.038538 522.141242 111.591870 238.867698 175.644106 -13.107091 -16.360183 27.495359 20.072372 26.917547 44.635368 14.380313 18.509493 9.442607 -23.660166 29.348360 -33.315853 -7.787885 -14.005695 -36.780842 -43.921446 66.132057 79.787067 23.619197 2.205266 -15.546371 9.320779 3.635258 -19.605747 -45.721010 -53.893751 -41.558638
